<mxfile host="app.diagrams.net" modified="2024-06-01T07:31:02.933Z" agent="Mozilla/5.0 (X11; Ubuntu; Linux x86_64; rv:126.0) Gecko/20100101 Firefox/126.0" version="24.4.13" etag="kreZn0zg6b8kcoEaHeZt" type="github">
  <diagram name="Page-1" id="XFUqo-KtPSDRkGMWfzFZ">
    <mxGraphModel>
      <root>
        <mxCell id="0" />
        <mxCell id="1" parent="0" />
      </root>
    </mxGraphModel>
  </diagram>
</mxfile>
